<svg width="152" height="40" viewBox="0 0 152 40" fill="none" xmlns="http://www.w3.org/2000/svg">
<circle cx="20" cy="20" r="20" fill="#EDFFFC"/>
<path d="M25 10H15C12.2386 10 10 12.2386 10 15V25C10 27.7614 12.2386 30 15 30H25C27.7614 30 30 27.7614 30 25V15C30 12.2386 27.7614 10 25 10Z" stroke="#02897A" stroke-width="2" stroke-linecap="round" stroke-linejoin="round"/>
<path d="M24 19.3698C24.1234 20.2021 23.9812 21.052 23.5937 21.7988C23.2062 22.5456 22.5931 23.1512 21.8416 23.5295C21.0901 23.9077 20.2384 24.0394 19.4077 23.9057C18.5771 23.7721 17.8097 23.3799 17.2148 22.785C16.6199 22.1901 16.2277 21.4227 16.094 20.592C15.9604 19.7614 16.092 18.9097 16.4703 18.1582C16.8485 17.4067 17.4541 16.7936 18.2009 16.4061C18.9477 16.0186 19.7977 15.8764 20.63 15.9998C21.4789 16.1257 22.2648 16.5213 22.8716 17.1281C23.4785 17.735 23.8741 18.5209 24 19.3698Z" stroke="#02897A" stroke-width="2" stroke-linecap="round" stroke-linejoin="round"/>
<path d="M25.5 14.5H25.51" stroke="#02897A" stroke-width="2" stroke-linecap="round" stroke-linejoin="round"/>
<circle cx="76" cy="20" r="20" fill="#EDFFFC"/>
<path d="M82 10H79C77.6739 10 76.4021 10.5268 75.4645 11.4645C74.5268 12.4021 74 13.6739 74 15V18H71V22H74V30H78V22H81L82 18H78V15C78 14.7348 78.1054 14.4804 78.2929 14.2929C78.4804 14.1054 78.7348 14 79 14H82V10Z" stroke="#02897A" stroke-width="2" stroke-linecap="round" stroke-linejoin="round"/>
<circle cx="132" cy="20" r="20" fill="#EDFFFC"/>
<path d="M143 11.0101C142.042 11.6855 140.982 12.2022 139.86 12.5401C139.258 11.8476 138.457 11.3567 137.567 11.134C136.677 10.9112 135.739 10.9673 134.882 11.2945C134.025 11.6218 133.288 12.2045 132.773 12.9638C132.258 13.7231 131.988 14.6224 132 15.5401V16.5401C130.243 16.5856 128.501 16.1959 126.931 15.4055C125.361 14.6151 124.01 13.4487 123 12.0101C123 12.0101 119 21.0101 128 25.0101C125.941 26.408 123.487 27.109 121 27.0101C130 32.0101 141 27.0101 141 15.5101C140.999 15.2315 140.972 14.9537 140.92 14.6801C141.941 13.6735 142.661 12.4028 143 11.0101V11.0101Z" stroke="#02897A" stroke-width="2" stroke-linecap="round" stroke-linejoin="round"/>
</svg>
